<svg xmlns="http://www.w3.org/2000/svg" width="32" height="32" viewBox="0 0 32 32">
  <defs>
    <linearGradient id="flame" x1="0%" y1="0%" x2="0%" y2="100%">
      <stop offset="0%" style="stop-color:#fbbf24;stop-opacity:1" />
      <stop offset="50%" style="stop-color:#f97316;stop-opacity:1" />
      <stop offset="100%" style="stop-color:#dc2626;stop-opacity:1" />
    </linearGradient>
  </defs>
  <rect width="32" height="32" fill="#0b0b0d"/>
  <path d="M16 4C16 4 10 10 10 18C10 24 13 26 16 26C19 26 22 24 22 18C22 10 16 4 16 4Z" fill="url(#flame)"/>
  <path d="M16 8C16 8 13 11 13 16C13 19 14.5 20 16 20C17.5 20 19 19 19 16C19 11 16 8 16 8Z" fill="#fef3c7"/>
</svg>
