<svg width="32" height="32" viewBox="0 0 24 24" fill="none" xmlns="http://www.w3.org/2000/svg">
  <path d="M12 2C12 2 8 6 8 10C8 12.21 9.79 14 12 14C14.21 14 16 12.21 16 10C16 6 12 2 12 2Z" fill="url(#flameGradient1)"/>
  <path d="M12 14C12 14 10 16 10 18C10 19.1 10.9 20 12 20C13.1 20 14 19.1 14 18C14 16 12 14 12 14Z" fill="url(#flameGradient2)"/>
  <path d="M12 20C12 20 11 21 11 21.5C11 21.78 11.22 22 11.5 22H12.5C12.78 22 13 21.78 13 21.5C13 21 12 20 12 20Z" fill="url(#flameGradient3)"/>
  <defs>
    <linearGradient id="flameGradient1" x1="12" y1="2" x2="12" y2="14" gradientUnits="userSpaceOnUse">
      <stop stop-color="#f19332"/>
      <stop offset="1" stop-color="#ed7611"/>
    </linearGradient>
    <linearGradient id="flameGradient2" x1="12" y1="14" x2="12" y2="20" gradientUnits="userSpaceOnUse">
      <stop stop-color="#ed7611"/>
      <stop offset="1" stop-color="#de5c07"/>
    </linearGradient>
    <linearGradient id="flameGradient3" x1="12" y1="20" x2="12" y2="22" gradientUnits="userSpaceOnUse">
      <stop stop-color="#de5c07"/>
      <stop offset="1" stop-color="#b84608"/>
    </linearGradient>
  </defs>
</svg>
